<svg id="visual" viewBox="0 0 900 600" width="900" height="600" xmlns="http://www.w3.org/2000/svg" xmlns:xlink="http://www.w3.org/1999/xlink" version="1.1"><path d="M0 109L100 109L100 283L200 283L200 343L300 343L300 283L400 283L400 283L500 283L500 181L600 181L600 217L700 217L700 223L800 223L800 139L900 139L900 169L900 0L900 0L800 0L800 0L700 0L700 0L600 0L600 0L500 0L500 0L400 0L400 0L300 0L300 0L200 0L200 0L100 0L100 0L0 0Z" fill="#005dff"></path><path d="M0 301L100 301L100 499L200 499L200 457L300 457L300 499L400 499L400 379L500 379L500 313L600 313L600 367L700 367L700 379L800 379L800 355L900 355L900 313L900 167L900 137L800 137L800 221L700 221L700 215L600 215L600 179L500 179L500 281L400 281L400 281L300 281L300 341L200 341L200 281L100 281L100 107L0 107Z" fill="#000528"></path><path d="M0 601L100 601L100 601L200 601L200 601L300 601L300 601L400 601L400 601L500 601L500 601L600 601L600 601L700 601L700 601L800 601L800 601L900 601L900 601L900 311L900 353L800 353L800 377L700 377L700 365L600 365L600 311L500 311L500 377L400 377L400 497L300 497L300 455L200 455L200 497L100 497L100 299L0 299Z" fill="#005dff"></path></svg>