<svg width="107" height="107" viewBox="0 0 107 107" fill="none" xmlns="http://www.w3.org/2000/svg">
<g clip-path="url(#clip0_2350_83)">
<path d="M53.5006 0.000610352C23.953 0.000610352 0 23.9515 0 53.5013C0 83.0465 23.953 106.999 53.5006 106.999C83.047 106.999 107 83.0465 107 53.5013C107 23.9513 83.047 0.000610352 53.5006 0.000610352Z" fill="white"/>
<path d="M68.8977 18.2737H38.1023C35.3807 18.2737 33.1741 20.4799 33.1741 23.2014V83.7983C33.1741 86.5199 35.3805 88.7261 38.1023 88.7261H68.8979C71.6199 88.7261 73.8261 86.5199 73.8261 83.7983V23.2014C73.8259 20.4801 71.6197 18.2737 68.8977 18.2737Z" fill="#444647"/>
<path d="M68.8977 18.2737H38.1023C35.3807 18.2737 33.1741 20.4799 33.1741 23.2014V83.7983C33.1741 85.1591 33.7257 86.3909 34.6175 87.2829L71.9693 19.3477C71.1269 18.6757 70.0594 18.2737 68.8977 18.2737Z" fill="#4D5051"/>
<path d="M70.656 53.1608H36.3441C36.1567 53.1608 36.0046 53.3126 36.0046 53.5C36.0046 53.6874 36.1567 53.8392 36.3441 53.8392H70.656C70.8434 53.8392 70.9954 53.6874 70.9954 53.5C70.9954 53.3126 70.8434 53.1608 70.656 53.1608Z" fill="#828282"/>
<path d="M42.0874 85.6028C43.8811 85.6028 45.3352 84.1487 45.3352 82.355C45.3352 80.5613 43.8811 79.1072 42.0874 79.1072C40.2937 79.1072 38.8396 80.5613 38.8396 82.355C38.8396 84.1487 40.2937 85.6028 42.0874 85.6028Z" fill="#D8D8D8"/>
<path d="M64.9126 85.6028C66.7063 85.6028 68.1604 84.1487 68.1604 82.355C68.1604 80.5613 66.7063 79.1072 64.9126 79.1072C63.1189 79.1072 61.6648 80.5613 61.6648 82.355C61.6648 84.1487 63.1189 85.6028 64.9126 85.6028Z" fill="#D8D8D8"/>
<path d="M53.5 85.6026C55.2937 85.6026 56.7478 84.1486 56.7478 82.3549C56.7478 80.5611 55.2937 79.1071 53.5 79.1071C51.7063 79.1071 50.2522 80.5611 50.2522 82.3549C50.2522 84.1486 51.7063 85.6026 53.5 85.6026Z" fill="#5C5F60"/>
<path d="M42.0874 74.6192C43.8811 74.6192 45.3352 73.1652 45.3352 71.3715C45.3352 69.5777 43.8811 68.1237 42.0874 68.1237C40.2937 68.1237 38.8396 69.5777 38.8396 71.3715C38.8396 73.1652 40.2937 74.6192 42.0874 74.6192Z" fill="#5C5F60"/>
<path d="M64.9126 74.6192C66.7063 74.6192 68.1604 73.1652 68.1604 71.3715C68.1604 69.5777 66.7063 68.1237 64.9126 68.1237C63.1189 68.1237 61.6648 69.5777 61.6648 71.3715C61.6648 73.1652 63.1189 74.6192 64.9126 74.6192Z" fill="#5C5F60"/>
<path d="M53.5 74.6192C55.2937 74.6192 56.7478 73.1652 56.7478 71.3715C56.7478 69.5777 55.2937 68.1237 53.5 68.1237C51.7063 68.1237 50.2522 69.5777 50.2522 71.3715C50.2522 73.1652 51.7063 74.6192 53.5 74.6192Z" fill="#5C5F60"/>
<path d="M42.0874 63.2541C43.8811 63.2541 45.3352 61.8 45.3352 60.0063C45.3352 58.2126 43.8811 56.7585 42.0874 56.7585C40.2937 56.7585 38.8396 58.2126 38.8396 60.0063C38.8396 61.8 40.2937 63.2541 42.0874 63.2541Z" fill="#D8D8D8"/>
<path d="M64.9126 63.2541C66.7063 63.2541 68.1604 61.8 68.1604 60.0063C68.1604 58.2126 66.7063 56.7585 64.9126 56.7585C63.1189 56.7585 61.6648 58.2126 61.6648 60.0063C61.6648 61.8 63.1189 63.2541 64.9126 63.2541Z" fill="#D8D8D8"/>
<path d="M53.5 63.2541C55.2937 63.2541 56.7478 61.8 56.7478 60.0063C56.7478 58.2126 55.2937 56.7585 53.5 56.7585C51.7063 56.7585 50.2522 58.2126 50.2522 60.0063C50.2522 61.8 51.7063 63.2541 53.5 63.2541Z" fill="#5C5F60"/>
<path d="M42.0874 50.2954C43.8811 50.2954 45.3352 48.8413 45.3352 47.0476C45.3352 45.2539 43.8811 43.7998 42.0874 43.7998C40.2937 43.7998 38.8396 45.2539 38.8396 47.0476C38.8396 48.8413 40.2937 50.2954 42.0874 50.2954Z" fill="#D8D8D8"/>
<path d="M64.9126 50.2953C66.7063 50.2953 68.1604 48.8412 68.1604 47.0475C68.1604 45.2538 66.7063 43.7997 64.9126 43.7997C63.1189 43.7997 61.6648 45.2538 61.6648 47.0475C61.6648 48.8412 63.1189 50.2953 64.9126 50.2953Z" fill="#5C5F60"/>
<path d="M53.5 50.2953C55.2937 50.2953 56.7478 48.8412 56.7478 47.0475C56.7478 45.2538 55.2937 43.7997 53.5 43.7997C51.7063 43.7997 50.2522 45.2538 50.2522 47.0475C50.2522 48.8412 51.7063 50.2953 53.5 50.2953Z" fill="#5C5F60"/>
<path d="M42.0874 39.3119C43.8811 39.3119 45.3352 37.8578 45.3352 36.0641C45.3352 34.2704 43.8811 32.8163 42.0874 32.8163C40.2937 32.8163 38.8396 34.2704 38.8396 36.0641C38.8396 37.8578 40.2937 39.3119 42.0874 39.3119Z" fill="#5C5F60"/>
<path d="M64.9126 39.3119C66.7063 39.3119 68.1604 37.8578 68.1604 36.0641C68.1604 34.2704 66.7063 32.8163 64.9126 32.8163C63.1189 32.8163 61.6648 34.2704 61.6648 36.0641C61.6648 37.8578 63.1189 39.3119 64.9126 39.3119Z" fill="#5C5F60"/>
<path d="M53.5 39.3119C55.2937 39.3119 56.7478 37.8578 56.7478 36.0641C56.7478 34.2704 55.2937 32.8163 53.5 32.8163C51.7063 32.8163 50.2522 34.2704 50.2522 36.0641C50.2522 37.8578 51.7063 39.3119 53.5 39.3119Z" fill="#D8D8D8"/>
<path d="M42.0874 27.9468C43.8811 27.9468 45.3352 26.4927 45.3352 24.699C45.3352 22.9053 43.8811 21.4512 42.0874 21.4512C40.2937 21.4512 38.8396 22.9053 38.8396 24.699C38.8396 26.4927 40.2937 27.9468 42.0874 27.9468Z" fill="#5C5F60"/>
<path d="M64.9126 27.9468C66.7063 27.9468 68.1604 26.4927 68.1604 24.699C68.1604 22.9053 66.7063 21.4512 64.9126 21.4512C63.1189 21.4512 61.6648 22.9053 61.6648 24.699C61.6648 26.4927 63.1189 27.9468 64.9126 27.9468Z" fill="#D8D8D8"/>
<path d="M53.5 27.9468C55.2937 27.9468 56.7478 26.4927 56.7478 24.699C56.7478 22.9053 55.2937 21.4512 53.5 21.4512C51.7063 21.4512 50.2522 22.9053 50.2522 24.699C50.2522 26.4927 51.7063 27.9468 53.5 27.9468Z" fill="#5C5F60"/>
</g>
<defs>
<clipPath id="clip0_2350_83">
<rect width="107" height="107" fill="white"/>
</clipPath>
</defs>
</svg>
