<?xml version="1.0" standalone="no"?>
<!DOCTYPE svg PUBLIC "-//W3C//DTD SVG 20010904//EN"
 "http://www.w3.org/TR/2001/REC-SVG-20010904/DTD/svg10.dtd">
<svg version="1.0" xmlns="http://www.w3.org/2000/svg"
 width="700.000000pt" height="700.000000pt" viewBox="0 0 700.000000 700.000000"
 preserveAspectRatio="xMidYMid meet">
<metadata>
Created by potrace 1.14, written by Peter Selinger 2001-2017
</metadata>
<g transform="translate(0.000000,700.000000) scale(0.100000,-0.100000)"
fill="#000000" stroke="none">
<path d="M1717 6559 c-134 -22 -197 -183 -113 -291 12 -14 172 -142 356 -283
184 -141 336 -263 338 -271 2 -8 -13 -49 -34 -91 -20 -43 -72 -150 -114 -238
-43 -88 -101 -209 -130 -270 -29 -60 -82 -171 -117 -245 -36 -74 -90 -187
-120 -250 -29 -63 -58 -124 -64 -134 -38 -67 -75 -222 -78 -331 -2 -56 25
-279 53 -445 3 -14 7 -45 10 -70 4 -25 8 -56 11 -70 7 -41 26 -162 31 -200 2
-19 7 -46 9 -60 3 -14 12 -70 19 -125 8 -55 17 -113 20 -130 3 -16 12 -77 21
-135 8 -58 17 -116 19 -130 3 -14 7 -43 11 -65 3 -22 19 -128 36 -235 16 -107
31 -208 34 -225 2 -16 7 -48 10 -70 24 -155 35 -226 40 -270 4 -27 8 -57 10
-65 3 -12 30 -184 59 -380 2 -14 11 -68 19 -120 9 -52 19 -120 22 -151 l7 -57
-110 -88 c-60 -49 -172 -138 -249 -199 -87 -68 -149 -124 -163 -148 -58 -100
-9 -232 98 -268 28 -9 355 -12 1422 -13 762 -1 1414 2 1450 6 175 20 311 153
346 338 2 9 29 115 60 235 31 121 57 227 59 235 2 8 28 112 59 230 77 301 257
1012 261 1030 2 8 20 78 40 155 20 77 38 147 40 155 2 8 15 62 30 119 37 145
40 171 39 301 0 75 -6 138 -18 180 -25 96 -115 382 -126 402 -6 10 -10 23 -10
30 0 6 -31 109 -69 227 -38 119 -101 315 -139 436 -147 460 -215 673 -245 765
-17 52 -32 100 -33 107 -1 6 -22 74 -47 150 -25 76 -75 233 -112 348 -147 465
-159 493 -234 564 -55 52 -105 80 -174 98 -55 14 -193 16 -1283 17 -672 1
-1237 -2 -1257 -5z"/>
</g>
</svg>
