<svg width="696" height="667" viewBox="0 0 696 667" fill="none" xmlns="http://www.w3.org/2000/svg">
<g clip-path="url(#clip0_303_4)">
<path d="M282.02 173.298C282.006 174.454 281.755 175.596 281.284 176.652C280.812 177.708 280.13 178.657 279.278 179.44C278.427 180.223 277.425 180.824 276.333 181.206C275.241 181.588 274.082 181.743 272.928 181.661C272.377 181.639 271.829 181.571 271.289 181.457L267.237 206.696L251.028 200.608L263.78 171.634C264.08 169.497 265.178 167.552 266.853 166.191C268.528 164.83 270.655 164.154 272.809 164.297C275.202 164.341 277.489 165.296 279.201 166.969C280.913 168.642 281.922 170.906 282.02 173.298Z" fill="#9E616A"/>
<path d="M263.923 179.155C258.094 180.161 253.482 184.784 250.547 189.919C247.612 195.054 245.975 200.815 243.538 206.205C238.266 217.864 229.354 227.534 219.548 235.754C210.269 243.531 200.113 250.18 190.377 257.378C188.816 260.845 187.797 264.531 187.357 268.307C187.033 272.6 188.236 277.232 191.491 280.05C194.547 282.696 198.842 283.335 202.884 283.401C210.652 283.476 218.346 281.872 225.438 278.699C232.529 275.527 238.853 270.861 243.975 265.019C250.051 257.997 254.17 249.534 258.22 241.177C261.831 233.728 265.441 226.279 269.051 218.83C271.069 214.667 273.14 210.209 272.585 205.616C275.922 202.267 277.962 197.841 278.341 193.128C278.686 189.896 277.911 186.643 276.146 183.913C274.747 182.068 272.865 180.646 270.707 179.806C268.549 178.967 266.201 178.741 263.923 179.155Z" fill="#3F3D56"/>
<path d="M259.048 429.548L285.913 396.381L154.496 289.936L127.632 323.103L259.048 429.548Z" fill="white"/>
<path d="M65.8097 268.741C67.3336 260.878 73.808 253.874 81.7599 252.912C90.6412 251.838 98.7821 257.941 104.72 264.632C106.006 266.081 107.609 267.721 109.524 267.426C110.284 267.237 110.968 266.821 111.486 266.235C112.004 265.648 112.332 264.918 112.427 264.141C112.585 262.583 112.423 261.01 111.949 259.518C111.119 256.101 110.307 252.614 110.558 249.106C110.809 245.599 112.285 242.009 115.187 240.024C118.09 238.04 122.529 238.194 124.742 240.926C127.242 244.013 126.087 248.509 126.146 252.481C126.239 258.842 129.809 264.687 134.206 269.284C138.603 273.882 143.874 277.549 148.514 281.902C149.105 282.456 149.692 283.046 150.249 283.665L150.639 283.184C151.404 282.239 152.348 281.454 153.417 280.874C154.486 280.294 155.659 279.93 156.868 279.803C158.078 279.676 159.3 279.788 160.467 280.134C161.633 280.479 162.719 281.051 163.664 281.817C164.609 282.582 165.394 283.526 165.975 284.595C166.555 285.664 166.919 286.837 167.046 288.046C167.173 289.256 167.06 290.479 166.715 291.645C166.369 292.811 165.797 293.897 165.032 294.842L134.112 333.016C133.347 333.961 132.403 334.746 131.334 335.326C130.265 335.906 129.092 336.27 127.883 336.397C126.673 336.524 125.45 336.412 124.284 336.066C123.118 335.721 122.032 335.149 121.086 334.383C119.178 332.837 117.961 330.596 117.705 328.154C117.449 325.711 118.173 323.266 119.719 321.357L122.714 317.66C119.356 314.566 115.448 312.13 111.193 310.477C105.005 307.932 98.4233 306.479 92.1515 304.149C84.643 301.359 77.4679 297.196 72.3255 291.054C67.1832 284.913 64.2857 276.605 65.8097 268.741Z" fill="#0074FF"/>
<path d="M368.762 292.331C417.686 292.331 457.347 252.67 457.347 203.746C457.347 154.822 417.686 115.161 368.762 115.161C319.837 115.161 280.176 154.822 280.176 203.746C280.176 252.67 319.837 292.331 368.762 292.331Z" fill="white"/>
<path d="M368.762 666C477.285 666 565.26 578.025 565.26 469.502C565.26 360.979 477.285 273.004 368.762 273.004C260.239 273.004 172.264 360.979 172.264 469.502C172.264 578.025 260.239 666 368.762 666Z" fill="white"/>
<path d="M335.743 199.719C339.746 199.719 342.991 196.474 342.991 192.472C342.991 188.469 339.746 185.224 335.743 185.224C331.741 185.224 328.496 188.469 328.496 192.472C328.496 196.474 331.741 199.719 335.743 199.719Z" fill="#3F3D56"/>
<path d="M377.62 199.719C381.623 199.719 384.868 196.474 384.868 192.472C384.868 188.469 381.623 185.224 377.62 185.224C373.617 185.224 370.372 188.469 370.372 192.472C370.372 196.474 373.617 199.719 377.62 199.719Z" fill="#3F3D56"/>
<path d="M346.826 203.47L317.896 220.443C316.947 221 316.23 221.879 315.874 222.92C315.518 223.962 315.548 225.096 315.958 226.117C316.368 227.138 317.131 227.978 318.108 228.484C319.085 228.99 320.211 229.128 321.282 228.874L351.602 221.673C352.776 221.394 353.805 220.691 354.492 219.699C355.179 218.707 355.475 217.496 355.323 216.299L354.153 207.073C354.051 206.27 353.751 205.505 353.281 204.847C352.811 204.188 352.185 203.657 351.459 203.3C350.733 202.943 349.93 202.772 349.121 202.801C348.312 202.831 347.524 203.061 346.826 203.47Z" fill="#FD6584"/>
<path d="M368.762 405.882C376.768 405.882 383.258 399.392 383.258 391.386C383.258 383.38 376.768 376.89 368.762 376.89C360.756 376.89 354.266 383.38 354.266 391.386C354.266 399.392 360.756 405.882 368.762 405.882Z" fill="#3F3D56"/>
<path d="M368.762 469.502C376.768 469.502 383.258 463.012 383.258 455.006C383.258 447 376.768 440.51 368.762 440.51C360.756 440.51 354.266 447 354.266 455.006C354.266 463.012 360.756 469.502 368.762 469.502Z" fill="#3F3D56"/>
<path d="M368.762 533.122C376.768 533.122 383.258 526.632 383.258 518.626C383.258 510.621 376.768 504.131 368.762 504.131C360.756 504.131 354.266 510.621 354.266 518.626C354.266 526.632 360.756 533.122 368.762 533.122Z" fill="#3F3D56"/>
<path d="M476.491 239.75C463.855 234.848 448.935 237.933 438.02 245.969C429.609 252.163 423.381 260.934 415.047 267.233C402.149 276.983 385.145 279.984 369.022 278.773C352.898 277.562 337.346 272.505 321.976 267.485C321.976 267.485 300.922 248.995 287.276 247.267C280.426 246.451 273.48 247.174 266.945 249.382C260.41 251.591 254.45 255.23 249.499 260.034C241.722 267.694 236.763 279.213 239.887 289.672C243.748 302.599 258.722 309.526 272.186 308.68C285.65 307.834 282.097 320.667 293.867 314.075C281.667 366.628 270.814 396.157 233.352 434.98C229.54 438.929 225.506 442.95 223.633 448.109C221.759 453.268 222.774 459.949 227.447 462.827C231.156 465.111 235.954 464.234 239.631 461.742C236.391 467.974 233.151 474.206 229.911 480.438C227.622 484.84 225.343 490.262 227.926 494.498C231.075 499.662 239.52 498.634 243.492 494.071C244.319 498.739 247.766 503.12 252.428 503.302C258.765 503.549 262.732 496.726 265.226 490.895C286.038 442.235 306.85 393.575 327.661 344.915C332.262 334.158 337.407 322.745 347.316 316.524C355.302 311.509 365.135 310.694 374.541 310.014L437.496 305.459C449.799 304.569 462.38 303.612 473.676 298.657C484.972 293.702 494.93 283.888 496.576 271.663C498.386 258.231 489.127 244.653 476.491 239.75Z" fill="#0074FF"/>
<path d="M358.425 250.729C351.244 250.694 344.09 249.846 337.1 248.201L337.609 246.266C338.058 246.385 382.726 257.781 391.976 230.803L393.867 231.451C388.487 247.146 372.186 250.729 358.425 250.729Z" fill="#3F3D56"/>
<path d="M396.333 233.05C394.281 233.125 392.259 232.538 390.566 231.376C389.545 230.577 388.707 229.569 388.108 228.419C387.508 227.27 387.161 226.006 387.09 224.711L389.089 224.654C389.156 225.645 389.427 226.611 389.887 227.492C390.346 228.372 390.983 229.148 391.757 229.77C393.931 231.336 397.255 231.47 401.635 230.169L402.204 232.086C400.303 232.686 398.326 233.011 396.333 233.05Z" fill="#3F3D56"/>
<path d="M475.415 160.117C469.188 154.378 460.704 149.88 455.53 143.642C446.707 133.004 449.198 119.735 446.98 107.508C443.633 89.056 427.75 71.4831 404.032 63.3733C380.314 55.2636 349.268 57.9296 330.846 71.2322C305.103 89.821 318.026 99.756 294.763 119.908C288.231 125.566 279.669 130.175 274.977 136.679C270.284 143.182 265.929 167.712 275.344 170.728C285.458 166.004 456.23 183.708 462.549 184.829C468.867 185.95 476.043 184.003 479.67 180.183C485.371 174.178 481.641 165.856 475.415 160.117Z" fill="#0074FF"/>
<path d="M388.089 59.5937C404.546 59.5937 417.886 46.2532 417.886 29.7969C417.886 13.3405 404.546 0 388.089 0C371.633 0 358.292 13.3405 358.292 29.7969C358.292 46.2532 371.633 59.5937 388.089 59.5937Z" fill="#F2F2F2"/>
<path d="M609.086 335.988L582.222 302.821L450.805 409.266L477.67 442.433L609.086 335.988Z" fill="white"/>
<path d="M670.909 281.626C669.385 273.763 662.91 266.759 654.959 265.797C646.077 264.723 637.936 270.826 631.998 277.517C630.712 278.966 629.109 280.606 627.194 280.311C626.435 280.122 625.751 279.706 625.232 279.12C624.714 278.533 624.386 277.803 624.292 277.026C624.133 275.469 624.296 273.895 624.769 272.403C625.6 268.986 626.411 265.499 626.16 261.992C625.91 258.484 624.434 254.894 621.531 252.91C618.629 250.925 614.189 251.079 611.976 253.812C609.476 256.899 610.631 261.394 610.573 265.366C610.48 271.727 606.909 277.572 602.512 282.169C598.115 286.767 592.844 290.434 588.205 294.787C587.614 295.342 587.027 295.932 586.47 296.55L586.08 296.069C585.314 295.124 584.37 294.339 583.301 293.759C582.233 293.179 581.06 292.815 579.85 292.688C578.641 292.561 577.418 292.673 576.252 293.019C575.086 293.364 573.999 293.936 573.054 294.702C572.109 295.467 571.324 296.411 570.744 297.48C570.164 298.549 569.8 299.722 569.673 300.931C569.546 302.141 569.658 303.364 570.004 304.53C570.349 305.696 570.921 306.782 571.687 307.727L602.606 345.901C604.152 347.809 606.393 349.026 608.836 349.282C611.279 349.539 613.723 348.814 615.632 347.268C617.541 345.722 618.757 343.481 619.013 341.039C619.27 338.596 618.545 336.151 616.999 334.243L614.004 330.545C617.362 327.452 621.27 325.015 625.526 323.362C631.713 320.817 638.295 319.364 644.567 317.034C652.075 314.244 659.251 310.081 664.393 303.939C669.535 297.798 672.433 289.49 670.909 281.626Z" fill="#0074FF"/>
<path d="M230.571 327.609H182.321V379.238H230.571V327.609Z" fill="#9E616A"/>
<path d="M152.23 645.177H161.737L166.259 605.941L152.229 605.942L152.23 645.177Z" fill="#9E616A"/>
<path d="M178.323 656.643L164.038 646.086V639.199L162.418 639.301L152.234 639.955L149.011 640.158L147.176 663.705L147.116 664.488H153.862L154 663.705L155.068 657.675L157.8 663.705L158.153 664.488H176.04C176.875 664.49 177.687 664.215 178.349 663.705C178.889 663.294 179.325 662.762 179.623 662.152C179.921 661.542 180.071 660.871 180.063 660.192C180.07 659.506 179.916 658.827 179.614 658.211C179.312 657.594 178.87 657.057 178.323 656.643Z" fill="#2F2E41"/>
<path d="M205.827 639.719L214.963 642.53L229.445 606.161L215.961 602.012L205.827 639.719Z" fill="#9E616A"/>
<path d="M227.942 658.463L216.939 644.09L218.722 637.471L217.137 637.093L208.306 634.972L207.177 634.705L204.032 633.949L195.924 656.767L202.404 658.767L205.325 652.572L206.522 660.03L210.606 661.284L221.712 664.705L223.72 665.322C224.298 665.498 224.91 665.533 225.504 665.426C226.099 665.318 226.66 665.071 227.14 664.705C227.906 664.127 228.455 663.309 228.7 662.381C228.879 661.714 228.904 661.014 228.773 660.335C228.642 659.656 228.357 659.016 227.942 658.463Z" fill="#2F2E41"/>
<path d="M209.055 236.195C223.202 236.195 234.67 223.924 234.67 208.787C234.67 193.65 223.202 181.379 209.055 181.379C194.909 181.379 183.441 193.65 183.441 208.787C183.441 223.924 194.909 236.195 209.055 236.195Z" fill="#9E616A"/>
<path d="M213.338 175.488H196.792C185.945 175.488 177.151 186.074 177.151 199.132C168.966 207.926 175.884 208.627 182.378 220.488C186.592 225.373 194.192 238.4 211.985 240.555L213.53 233.498L216.576 242.792C219.286 244.197 221.972 245.733 224.635 247.4C221.527 231.772 220.247 216.18 222.382 204.069H227.986V197.506L229.888 204.069H240.048C240.048 188.284 228.09 175.488 213.338 175.488Z" fill="#2F2E41"/>
<path d="M263.302 534.989C264.108 532.713 264.405 530.288 264.171 527.884C263.937 525.481 263.179 523.158 261.949 521.08L240.048 399.52L231.432 353.423H179.736C179.736 353.423 147.426 391.684 154.319 440.547L152.389 509.361C150.556 514.113 150.107 519.286 151.094 524.283L151.862 528.176L151.565 528.762C150.152 531.585 149.397 534.693 149.357 537.85C149.317 541.007 149.993 544.132 151.334 546.991L149.149 624.935L164.658 624.013L187.49 533.202L202.568 451.61L227.986 514.763L228.847 529.514L228.429 542.517L208.6 618.482L225.401 625.396L263.302 534.989Z" fill="#2F2E41"/>
<path d="M211.615 243.712L206.379 238.488L188.379 233.488L180.636 242.275L179.803 245.662C172.946 273.599 171.891 302.645 176.702 331.006C177.633 331.967 178.306 333.147 178.659 334.437C179.012 335.728 179.034 337.086 178.722 338.387L178.277 340.286L178.318 340.355C179.785 342.858 180.276 345.814 179.698 348.657C153.228 371.826 142.747 397.633 145.698 425.657L147.248 434.786C242.822 480.28 274.805 451.298 231.432 334.062L242.633 292.575L211.615 243.712Z" fill="#3F3D56"/>
<path d="M288.39 331.153C288.04 331.565 287.727 332.008 287.455 332.475L242.218 300.431L209.899 256.459C208.056 253.829 205.266 252.014 202.114 251.395C198.962 250.776 195.693 251.401 192.992 253.139C186.906 257.054 184.885 265.471 188.453 272.04C193.742 281.812 200.499 290.715 208.488 298.437L234.634 323.627L289.723 344.864C291.41 346.176 293.542 346.778 295.666 346.543C297.79 346.308 299.739 345.254 301.098 343.605C302.648 341.757 303.451 339.398 303.352 336.989C303.253 334.579 302.259 332.294 300.563 330.58C299.753 329.766 298.781 329.132 297.711 328.717C296.641 328.302 295.496 328.115 294.349 328.169C293.203 328.223 292.08 328.516 291.054 329.03C290.027 329.544 289.12 330.267 288.39 331.153Z" fill="#9E616A"/>
<path d="M211.727 252.109C207.857 250.222 203.905 248.316 199.643 247.711C195.38 247.106 190.679 248.004 187.654 251.067C184.814 253.943 183.894 258.187 183.563 262.215C182.98 269.962 184.076 277.744 186.777 285.029C189.478 292.313 193.72 298.929 199.212 304.424C205.822 310.946 213.997 315.611 222.07 320.201L243.658 332.473C247.681 334.759 251.994 337.118 256.613 336.865C259.736 340.415 264.019 342.741 268.697 343.427C271.899 343.983 275.196 343.423 278.036 341.841C279.969 340.566 281.511 338.781 282.49 336.683C283.47 334.585 283.849 332.256 283.585 329.956C282.963 324.074 278.652 319.169 273.721 315.903C268.789 312.638 263.147 310.627 257.929 307.842C246.641 301.817 237.576 292.291 230.016 281.967C222.457 271.643 216.228 260.418 209.235 249.703" fill="#3F3D56"/>
<path d="M190.118 332.726C186.66 332.132 182.915 332.221 179.883 333.988C176.851 335.755 174.823 339.546 175.931 342.876C176.419 344.087 177.182 345.167 178.16 346.031C179.137 346.896 180.303 347.521 181.564 347.858C184.089 348.509 186.7 348.758 189.303 348.598L216.323 348.34C220.358 348.302 224.793 348.404 227.826 351.065C231.709 354.472 231.588 360.445 231.156 365.593L228.737 394.396C228.53 395.761 228.601 397.154 228.945 398.492C229.128 399.157 229.505 399.754 230.026 400.206C230.548 400.658 231.192 400.946 231.877 401.034C234.497 401.137 235.528 397.71 235.698 395.093C236.942 375.949 237.114 356.751 236.213 337.588C236.102 335.22 235.842 332.572 234.034 331.038C232.278 329.548 229.713 329.666 227.418 329.864L180.888 333.888" fill="#2F2E41"/>
<path d="M232.81 171.994C228.662 170.014 223.934 173.094 219.341 173.542C212.246 174.233 206.248 168.624 199.392 166.726C190.039 164.137 179.58 169.152 174.244 177.209C168.907 185.266 168.149 195.663 170.367 205.015C171.171 208.407 172.394 211.807 174.741 214.4C177.087 216.993 175.926 221.177 179.36 220.373L182.347 218.835C179.753 220.995 177.07 223.271 175.739 226.353C174.408 229.434 179.732 231.022 182.584 232.813C186.817 235.472 192.06 231.516 195.476 227.86C206.986 215.538 218.497 203.216 230.007 190.894C232.57 188.151 235.214 185.268 236.259 181.684C237.305 178.099 236.199 173.612 232.81 171.994Z" fill="#3F3D56"/>
<path d="M5.26701e-06 665.764C-0.000460802 665.92 0.0300089 666.075 0.0896507 666.22C0.149292 666.365 0.236938 666.496 0.347539 666.607C0.45814 666.717 0.589511 666.805 0.734106 666.864C0.8787 666.924 1.03366 666.954 1.19007 666.954H694.48C694.796 666.954 695.098 666.829 695.322 666.605C695.545 666.382 695.67 666.08 695.67 665.764C695.67 665.448 695.545 665.146 695.322 664.923C695.098 664.699 694.796 664.574 694.48 664.574H1.19001C1.03361 664.574 0.878661 664.604 0.734075 664.664C0.58949 664.723 0.458118 664.811 0.347524 664.922C0.236931 665.032 0.149291 665.163 0.0896507 665.308C0.0300107 665.453 -0.000455455 665.608 5.26701e-06 665.764Z" fill="white"/>
</g>
<defs>
<clipPath id="clip0_303_4">
<rect width="695.67" height="666.954" fill="white"/>
</clipPath>
</defs>
</svg>
